<svg xmlns="http://www.w3.org/2000/svg" xmlns:xlink="http://www.w3.org/1999/xlink" xmlns:inkscape="http://www.inkscape.org/namespaces/inkscape" version="1.1" width="198" height="54" viewBox="0 0 198 54">
<defs>
<clipPath id="clip_1">
<path transform="matrix(1,0,0,-1,0,54)" d="M0 54H198V0H0Z"/>
</clipPath>
</defs>
<g inkscape:groupmode="layer" inkscape:label="Layer 2">
<g clip-path="url(#clip_1)">
<path transform="matrix(1,0,0,-1,21.464,19.9492)" d="M0 0C-.015 .004-.041 .01-.056 .011-1.065 .085-3.032 .065-4.084 .063L-9.161 .056-9.21-.006C-9.23-.013-9.35 .07-9.302 .156L-5.309 7.296 5.836 7.307 6.822 7.124C10.344 6.388 13.147 3.632 13.81 .058L.145 .055C.067 .055 .002 .017 0 0" fill="#ff0000"/>
<path transform="matrix(1,0,0,-1,25.016,21.929)" d="M0 0-9.274-.007C-9.345 .167-9.938 .324-10.024 .505-9.795 .661-9.514 .716-9.211 .78L-6.318 1.392-4.602 1.783C-4.4 1.829-4.184 1.927-3.934 1.912-3.809 1.904-3.648 1.929-3.608 1.991-3.593 1.99-3.567 1.983-3.552 1.98Z" fill="#6a0000"/>
<path transform="matrix(1,0,0,-1,21.4082,19.9379)" d="M0 0C-.04-.062-.201-.087-.326-.079-.577-.064-.792-.162-.994-.208L-2.711-.599-5.603-1.211C-5.907-1.275-6.187-1.33-6.417-1.486-6.774-1.356-7.125-1.153-7.431-.925-7.179-.95-6.657-.743-6.294-.68L-4.329-.336C-3.971-.274-3.618-.176-3.26-.085-2.69-.075-2.161-.111-1.592-.028L-8.898-.016-8.969-.083-9.155-.018-9.106 .045-4.028 .052C-2.977 .053-1.009 .073 0 0" fill="#610000"/>
<path transform="matrix(1,0,0,-1,13.9774,20.8625)" d="M0 0C-.532 .233-1.045 .532-1.539 .841L-1.468 .909 5.839 .896C5.27 .813 4.741 .85 4.17 .839 3.813 .749 3.46 .651 3.102 .588L1.137 .245C.774 .182 .252-.025 0 0" fill="#590000"/>
<path transform="matrix(1,0,0,-1,31.813,30.8078)" d="M0 0-.24 .066-.486 .195-.872 .377-.999 .488C-.93 .493-.76 .521-.695 .562L-.066 .959-.05 1.778 .013 1.845Z" fill="#9c0202"/>
<path transform="matrix(1,0,0,-1,15.7422,21.935502)" d="M0 0 9.274 .007 19.683-.028C19.613-2.781 18.217-5.234 16.08-6.907 15.523-7.344 14.754-7.706 14.102-7.981 13.23-8.348 12.221-8.586 11.253-8.598L7.905-8.638-9.475-8.619C-8.083-5.726-6.318-2.951-4.801-.041-4.203-.017-3.678-.006-3.115-.005Z" fill="#ff0000"/>
<path transform="matrix(1,0,0,-1,31.3767,34.3098)" d="M0 0 .453-.267 .449-7.048-12.319-1.617C-12.167-1.484-11.933-1.442-11.697-1.446-10.968-1.456-10.267-1.478-9.552-1.429L-8.957-1.389-8.077-1.339C-7.549-1.309-7.049-1.31-6.529-1.238L-5.338-1.072C-4.813-.999-4.295-.906-3.791-.768L-3.091-.576C-2.605-.442-1.956-.22-1.511 .005L-1.019 .253-.948 .393Z" fill="#ff0000"/>
<path transform="matrix(1,0,0,-1,30.0507,33.668603)" d="M0 0 .378-.248 .307-.388-.185-.636C-.63-.861-1.279-1.084-1.765-1.217L-2.465-1.409C-2.969-1.547-3.487-1.64-4.012-1.713L-5.203-1.879C-5.723-1.951-6.223-1.95-6.751-1.98L-7.631-2.03-8.226-2.071C-8.941-2.119-9.642-2.097-10.371-2.087-10.607-2.083-10.841-2.126-10.993-2.258L-12.79-1.509C-12.768-1.407-12.559-1.542-12.477-1.541L-11.531-1.538-10.442-1.534-7.688-1.488C-6.889-1.475-6.137-1.382-5.346-1.287L-4.313-1.164-3.539-1.049C-3.277-1.01-3.038-.929-2.781-.853-2.556-.787-2.243-.784-2.031-.706L-1.314-.444C-.964-.316-.508-.139-.26 .064Z" fill="#f60000"/>
<path transform="matrix(1,0,0,-1,23.647,30.5738)" d="M0 0 .005-.058-.771-.147-1.341-.326C-1.729-.448-2.107-.557-2.514-.595-2.886-.629-3.221-.718-3.596-.784-3.852-.83-4.169-.822-4.434-.846L-6.412-1.026-7.742-1.092-9.408-1.158-10.931-1.221-11.873-1.271-12.489-1.294C-12.952-1.311-13.414-1.261-13.818-1.377-14.081-1.291-14.333-1.159-14.591-1.06L-13.046-1.008-12.165-.962-10.859-.88-9.407-.847-8.095-.799-7.13-.706-6.366-.655C-5.581-.602-3.9-.433-3.193-.251-3.023-.207-2.798-.138-2.63-.13L-1.229-.069C-2.028-.063-2.849-.016-3.648-.044H-16.925C-16.973-.044-17.096-.1-17.109-.115-17.197-.078-17.297-.027-17.379 .02Z" fill="#730000"/>
<path transform="matrix(1,0,0,-1,19.9992,30.6183)" d="M0 0-2.733-.096-3.603-.218C-3.955-.267-4.282-.288-4.643-.305L-5.747-.357-7.095-.414C-7.547-.433-7.941-.514-8.39-.542L-9.217-.594C-10.053-.646-10.163-.587-10.871-.715-11.062-.75-11.311-.649-11.441-.825-11.489-.807-11.583-.779-11.632-.762-11.63-.582-11.878-.617-12.014-.571L-13.16-.187C-13.254-.155-13.369-.109-13.461-.07-13.448-.056-13.325 0-13.277 0Z" fill="#5e0000"/>
<path transform="matrix(1,0,0,-1,29.3374,33.3416)" d="M0 0C.096-.061 .212-.109 .326-.139L.453-.263C.205-.466-.25-.643-.601-.771L-1.317-1.033C-1.53-1.111-1.843-1.114-2.068-1.18-2.325-1.256-2.564-1.337-2.825-1.376L-3.6-1.491-4.632-1.614C-5.423-1.709-6.175-1.802-6.975-1.815L-9.729-1.861-10.817-1.865-11.764-1.868C-11.845-1.869-12.055-1.734-12.077-1.836L-12.967-1.448C-12.901-1.394-12.709-1.476-12.605-1.476-12.155-1.479-11.71-1.439-11.266-1.489-10.472-1.577-10.692-1.473-9.905-1.507-8.577-1.566-8.991-1.488-7.826-1.442-7.419-1.426-7.02-1.397-6.607-1.409-5.798-1.432-5.047-1.33-4.246-1.235L-3.795-1.182C-3.197-1.111-1.59-.739-1.05-.542L-.216-.239C-.178-.226-.062-.189-.07-.159L-.108-.013Z" fill="#ee0000"/>
<path transform="matrix(1,0,0,-1,28.2167,32.8344)" d="M0 0C.075-.034 .176-.088 .241-.13-1.057-.706-2.971-.931-4.426-1.057L-5.739-1.172-6.627-1.189-7.475-1.199-11.776-1.193-12.922-1.137C-13.209-1.123-13.517-1.022-13.743-1.143-13.84-1.102-13.961-1.049-14.059-1.021L-14.32-.826-12.961-.867-11.771-.945-6.825-.959C-6.463-.867-6.113-.932-5.769-.913L-4.338-.832C-3.755-.8-3.192-.693-2.617-.603L-1.9-.491C-1.67-.455-1.447-.402-1.221-.339Z" fill="#c10000"/>
<path transform="matrix(1,0,0,-1,28.4581,32.964303)" d="M0 0 .131-.005 .258-.13C-.471-.437-1.213-.742-2.035-.824-2.825-.903-2.857-1.005-3.626-1.066L-4.391-1.128-5.429-1.211C-5.619-1.226-5.842-1.249-6.042-1.254L-8.502-1.307-9.846-1.329-10.863-1.294-12.657-1.276C-12.932-1.273-13.166-1.241-13.447-1.158L-13.545-1.204-13.985-1.014C-13.759-.892-13.451-.993-13.163-1.007L-12.017-1.063-7.716-1.069-6.869-1.059-5.98-1.042-4.667-.927C-3.212-.801-1.299-.576 0 0" fill="#ce0000"/>
<path transform="matrix(1,0,0,-1,29.2298,33.3546)" d="M0 0 .038-.146C.046-.176-.07-.213-.108-.226L-.942-.529C-1.482-.726-3.089-1.098-3.688-1.169L-4.138-1.222C-4.939-1.317-5.69-1.419-6.499-1.396-6.913-1.384-7.312-1.413-7.719-1.429-8.883-1.475-8.47-1.553-9.797-1.494-10.585-1.46-10.364-1.564-11.158-1.476-11.603-1.426-12.048-1.466-12.497-1.463-12.601-1.463-12.794-1.381-12.859-1.435L-13.096-1.329C-13.032-1.296-12.895-1.261-12.799-1.263L-10.695-1.306H-10.031L-8.989-1.289-7.513-1.254-5.969-1.176-4.903-1.103C-3.409-1-1.745-.639-.323-.138-.261-.116-.151 .016-.142 .062Z" fill="#e40000"/>
<path transform="matrix(1,0,0,-1,28.7166,33.0946)" d="M0 0C.013-.013 .035-.039 .049-.055-.109-.303-.469-.344-.776-.437-1.807-.75-3.449-1.056-4.519-1.132L-5.227-1.182-6.493-1.261C-6.684-1.273-6.878-1.276-7.008-1.334L-7.572-1.356-8.21-1.373-11.958-1.376C-12.333-1.377-12.71-1.258-13.025-1.399L-13.804-1.074-13.705-1.028C-13.424-1.111-13.19-1.143-12.915-1.146L-11.121-1.163-10.105-1.198-8.76-1.177-6.3-1.123C-6.101-1.119-5.877-1.095-5.688-1.08L-4.65-.998-3.885-.936C-3.116-.874-3.083-.773-2.294-.694-1.471-.612-.729-.306 0 0" fill="#d80000"/>
<path transform="matrix(1,0,0,-1,29.0874,33.2928)" d="M0 0C-.009-.046-.118-.178-.181-.2-1.602-.701-3.267-1.062-4.76-1.165L-5.827-1.238-7.371-1.316-8.847-1.351-9.889-1.368-10.553-1.367-12.656-1.325C-12.753-1.323-12.89-1.357-12.954-1.391L-13.395-1.201C-13.081-1.059-12.704-1.178-12.328-1.178L-8.581-1.175-7.943-1.157-7.379-1.135C-6.806-1.113-6.207-1.172-5.618-1.11L-3.929-.935C-3.24-.864-2.575-.706-1.891-.575-1.721-.542-.102-.09-.127 .071-.095 .054-.034 .015 0 0" fill="#e10000"/>
<path transform="matrix(1,0,0,-1,31.8225,28.8428)" d="M0 0 .003-.12-.06-.187-.076-1.006-.704-1.403C-.769-1.444-.94-1.472-1.008-1.477L-1.464-1.337C-1.612-1.218-1.792-1.128-1.978-1.074-1.327-.799-.557-.436 0 0" fill="#8f0101"/>
<path transform="matrix(1,0,0,-1,9.0563,31.6339)" d="M0 0-.499 .191C-.368 .367-.119 .266 .072 .301 .78 .429 .89 .37 1.725 .422L2.553 .474C3.002 .502 3.395 .582 3.848 .602L5.196 .658 6.3 .711C6.66 .728 6.988 .748 7.34 .798L8.21 .92 10.943 1.016C11.742 1.044 12.563 .997 13.362 .992L11.961 .93C11.793 .923 11.568 .853 11.398 .81 10.69 .627 9.009 .458 8.225 .406L7.461 .355 6.496 .261 5.184 .213 3.731 .181 2.426 .098 1.545 .052Z" fill="#690000"/>
<path transform="matrix(1,0,0,-1,23.8217,30.7447)" d="M0 0C-.11-.194-.412-.302-.673-.352L-2.296-.663-3.709-.858C-3.956-.892-4.243-.867-4.49-.918L-5.252-1.074-6.49-1.129-7.892-1.158-9.141-1.181-9.732-1.182C-9.832-1.183-10.068-1.259-10.173-1.258-10.573-1.222-10.944-1.216-11.329-1.25L-11.84-1.296C-12.128-1.321-12.467-1.24-12.755-1.294-13.194-1.377-13.583-1.325-13.993-1.206-13.589-1.09-13.127-1.14-12.664-1.123L-12.047-1.1-11.106-1.05-9.583-.987-7.916-.921-6.586-.855-4.609-.675C-4.343-.651-4.027-.659-3.771-.613-3.396-.547-3.061-.458-2.689-.424-2.282-.386-1.904-.277-1.516-.155L-.946 .024-.17 .113Z" fill="#7b0000"/>
<path transform="matrix(1,0,0,-1,8.367,31.3799)" d="M0 0C-.134 .049-.275 .117-.381 .19-.246 .145 .002 .18 0 0" fill="#690000"/>
<path transform="matrix(1,0,0,-1,27.8233,32.6525)" d="M0 0 .125 .001C.198-.056 .301-.097 .397-.115L.393-.182-.827-.521C-1.054-.584-1.277-.637-1.506-.673L-2.224-.785C-2.799-.875-3.362-.982-3.945-1.014L-5.375-1.095C-5.719-1.114-6.07-1.049-6.431-1.141L-11.377-1.127-12.568-1.049-13.926-1.008C-14.163-.953-14.394-.851-14.626-.758-14.399-.724-14.127-.719-13.865-.74L-13.035-.805-12.244-.862-10.601-.921C-9.594-.957-9.656-.92-8.761-.909L-7.789-.897-5.728-.866-4.768-.811-3.623-.745C-3.336-.728-3.028-.682-2.735-.632L-.894-.321C-.572-.266-.278-.124 0 0" fill="#b60000"/>
<path transform="matrix(1,0,0,-1,28.9601,33.221704)" d="M0 0C.026-.161-1.594-.613-1.763-.646-2.448-.778-3.113-.935-3.802-1.006L-5.491-1.182C-6.079-1.243-6.678-1.184-7.252-1.207-7.121-1.149-6.927-1.146-6.736-1.134L-5.471-1.055-4.763-1.005C-3.693-.929-2.051-.623-1.02-.31-.713-.217-.353-.176-.195 .072L-.149 .077Z" fill="#d90000"/>
<path transform="matrix(1,0,0,-1,25.2963,31.4519)" d="M0 0 .024-.149C.05-.315-.509-.385-.725-.394L-1.372-.421C-1.503-.427-1.687-.585-1.828-.593L-3.104-.666C-3.475-.687-3.788-.75-4.15-.776-4.69-.814-5.198-.895-5.743-.896-6.712-.896-6.143-1.007-7.078-1.014L-8.815-1.027-9.835-1.042-11.726-1.03-13.054-1.001-13.613-1.002C-13.87-1.002-14.142-.958-14.387-.94-14.604-.897-14.846-.823-15.022-.69-13.97-.857-14.382-.692-13.33-.789-12.792-.68-12.263-.743-11.727-.72L-10.885-.684C-10.63-.673-10.365-.707-10.117-.74-9.288-.663-8.865-.725-7.965-.675-7.689-.66-7.421-.63-7.14-.637-6.744-.646-6.375-.559-5.992-.528-5.59-.495-3.798-.358-3.548-.285-3.048-.138-2.635-.063-2.111-.023-1.728 .006-1.299 .205-.939 .284L-.947 .423C-.948 .44-.937 .44-.909 .451-.594 .323-.299 .16 0 0" fill="#870000"/>
<path transform="matrix(1,0,0,-1,26.2271,31.8896)" d="M0 0C-.028-.002-.062 .005-.054-.009-.044-.027 .032-.159 .041-.176L-.604-.309C-.889-.368-1.162-.436-1.453-.469L-2.031-.535C-2.546-.594-3.038-.648-3.559-.665L-4.832-.704-6.212-.787-8.054-.84C-8.767-.86-9.046-.891-9.777-.845-9.952-.834-10.868-.808-10.88-.892L-11.122-.875C-11.175-.786-11.295-.776-11.422-.78L-12.018-.796-12.59-.826-12.767-.824C-13.109-.683-13.509-.791-13.916-.758L-14.682-.696H-14.873C-15.028-.656-15.195-.581-15.318-.502-15.073-.52-14.801-.564-14.544-.564H-13.985L-12.657-.592-10.766-.604-9.746-.589-8.009-.576C-7.073-.57-7.643-.458-6.673-.458-6.129-.457-5.621-.376-5.081-.338-4.719-.312-4.405-.249-4.035-.228L-2.759-.156C-2.617-.147-2.434 .011-2.303 .016L-1.656 .044C-1.44 .053-.881 .123-.907 .289L-.931 .438C-.678 .303-.218 .173 0 0" fill="#8d0000"/>
<path transform="matrix(1,0,0,-1,24.3877,31.0006)" d="M0 0C-.028-.011-.04-.012-.039-.028L-.03-.167C-.39-.247-.82-.445-1.203-.474-1.726-.515-2.14-.589-2.64-.736-2.889-.809-4.681-.946-5.084-.979-5.466-1.01-5.835-1.097-6.231-1.088-6.513-1.082-6.781-1.111-7.057-1.127-7.957-1.177-8.379-1.115-9.208-1.191-9.457-1.158-9.722-1.124-9.977-1.135L-10.818-1.171C-11.354-1.195-11.883-1.131-12.421-1.24-13.473-1.143-13.062-1.308-14.114-1.141-14.269-1.116-14.439-1.043-14.559-.951-14.15-1.069-13.761-1.121-13.321-1.039-13.033-.984-12.694-1.065-12.406-1.04L-11.895-.995C-11.51-.961-11.139-.966-10.739-1.002-10.635-1.004-10.398-.927-10.298-.927L-9.707-.925-8.458-.902-7.056-.873-5.818-.818-5.056-.662C-4.809-.611-4.522-.636-4.275-.602L-2.862-.407-1.239-.096C-.978-.046-.676 .062-.566 .256-.363 .236-.18 .073 0 0" fill="#7f0000"/>
<path transform="matrix(1,0,0,-1,26.495,31.9648)" d="M0 0 .369-.247C.185-.515-.229-.534-.569-.583L-2.048-.797-3.478-.968C-4.135-1.046-4.803-.984-5.477-1.008L-6.498-1.044C-6.771-1.054-7.053-1.031-7.32-1.079-7.738-1.152-8.109-1.127-8.531-1.092-8.97-1.055-9.413-1.086-9.861-1.063L-10.69-1.021-13.167-.959C-13.639-.947-14.08-.954-14.505-.875-14.587-.86-14.753-.853-14.823-.811L-15.141-.621H-14.95C-14.918-.871-13.185-.748-13.035-.749L-12.858-.751-12.793-.804-11.721-.828C-11.591-.83-11.481-.835-11.39-.8L-11.148-.817C-10.731-.921-9.87-.958-9.389-.927-8.599-.875-8.692-.944-7.912-.918L-6.786-.88-4.353-.793-3.473-.759-2.231-.659C-1.91-.633-1.604-.585-1.279-.521L-.691-.404-.115-.279C-.069-.269 .031-.143-.001-.112L-.134 .019Z" fill="#940000"/>
<path transform="matrix(1,0,0,-1,27.5062,32.5159)" d="M0 0 .11-.001 .317-.137C.039-.26-.255-.403-.577-.457L-2.418-.769C-2.711-.818-3.019-.865-3.306-.881L-4.451-.948-5.411-1.002-7.471-1.033-8.443-1.046C-9.339-1.057-9.277-1.094-10.284-1.058L-11.927-.999-12.718-.942-13.548-.877C-13.81-.856-14.082-.861-14.308-.895L-14.944-.641V-.578C-14.8-.603-14.608-.629-14.44-.635L-12.722-.696-11.642-.748-10.629-.787-10.093-.807C-8.743-.857-7.878-.795-6.536-.754L-4.179-.682C-3.463-.661-.696-.283 0 0" fill="#ab0000"/>
<path transform="matrix(1,0,0,-1,27.1245,32.264299)" d="M0 0 .382-.252C-.314-.534-3.082-.912-3.797-.934L-6.154-1.005C-7.496-1.046-8.361-1.108-9.712-1.059L-10.247-1.039-11.261-.999-12.34-.947-14.058-.886C-14.226-.88-14.418-.854-14.562-.829-14.702-.805-14.861-.75-15.007-.702L-15.134-.575C-14.709-.655-14.268-.648-13.796-.66L-11.319-.722-10.49-.764C-10.042-.787-9.6-.756-9.161-.792-8.738-.827-8.368-.852-7.95-.779-7.682-.732-7.4-.754-7.127-.745L-6.107-.708C-5.432-.685-4.764-.747-4.107-.668L-2.677-.498-1.198-.284C-.859-.235-.444-.216-.26 .053Z" fill="#9f0000"/>
<path transform="matrix(1,0,0,-1,26.3614,31.9461)" d="M0 0 .133-.13C.165-.162 .064-.287 .019-.297L-.557-.423-1.146-.539C-1.47-.604-1.776-.651-2.097-.677L-3.339-.778-4.219-.812-6.653-.899-7.778-.937C-8.559-.963-8.466-.893-9.256-.945-9.737-.977-10.598-.939-11.014-.835-11.002-.752-10.086-.778-9.911-.789-9.181-.835-8.902-.804-8.188-.783L-6.346-.731-4.966-.647-3.693-.608C-3.173-.592-2.68-.538-2.166-.479L-1.587-.413C-1.296-.379-1.024-.311-.738-.253L-.093-.12C-.103-.103-.178 .029-.188 .048-.196 .061-.163 .055-.134 .056Z" fill="#940000"/>
<path transform="matrix(1,0,0,-1,13.4604,32.7141)" d="M0 0C-.151 .001-1.884-.122-1.915 .128L-1.15 .067C-.742 .034-.343 .142 0 0" fill="#940000"/>
<path transform="matrix(1,0,0,-1,15.1046,32.7647)" d="M0 0C-.091-.035-.201-.03-.331-.028L-1.403-.004-1.468 .049-.895 .079-.299 .095C-.172 .099-.053 .089 0 0" fill="#940000"/>
<path transform="matrix(1,0,0,-1,45.0669,17.952599)" d="M0 0H1.828C3.209 0 3.868-.659 3.868-1.743 3.868-2.827 3.209-3.486 1.828-3.486H0ZM0-7.269H1.36L3.89-11.01H9.246L6.122-6.419C7.907-5.505 8.927-3.89 8.927-1.743 8.927 1.701 6.292 3.869 2.146 3.869H-5.017V-11.01H0Z" fill="#ffffff"/>
<path transform="matrix(1,0,0,-1,68.2549,25.1797)" d="M0 0H-7.439V1.956H-1.147V5.569H-7.439V7.312H-.276V11.096H-12.371V-3.783H0Z" fill="#ffffff"/>
<path transform="matrix(1,0,0,-1,75.2046,25.0518)" d="M0 0V7.057H2.104C4.208 7.057 5.654 5.803 5.654 3.528 5.654 1.254 4.208 0 2.104 0ZM10.712 3.528C10.712 8.141 7.291 10.968 2.317 10.968H-5.017V-3.911H2.317C7.291-3.911 10.712-1.084 10.712 3.528" fill="#ffffff"/>
<path transform="matrix(1,0,0,-1,99.709,25.4766)" d="M0 0C-1.636 0-3.507 .531-4.91 1.36L-6.525-2.296C-5.037-3.21-2.529-3.826-.042-3.826 4.57-3.826 6.888-1.531 6.888 1.189 6.888 6.674-1.339 5.186-1.339 6.971-1.339 7.481-.871 7.907 .596 7.907 1.893 7.907 3.273 7.545 4.74 6.801L6.25 10.436C4.698 11.308 2.636 11.732 .638 11.732-3.974 11.732-6.291 9.479-6.291 6.716-6.291 1.169 1.935 2.678 1.935 .808 1.935 .297 1.425 0 0 0" fill="#ffffff"/>
<path transform="matrix(1,0,0,-1,120.4756,14.084)" d="M0 0H-13.731V-3.89H-9.374V-14.879H-4.357V-3.89H0Z" fill="#ffffff"/>
<path transform="matrix(1,0,0,-1,128.6143,21.4385)" d="M0 0H-1.828V3.486H0C1.382 3.486 2.041 2.827 2.041 1.743 2.041 .659 1.382 0 0 0M4.294-2.934C6.079-2.019 7.1-.404 7.1 1.743 7.1 5.187 4.464 7.354 .319 7.354H-6.844V-7.524H-1.828V-3.783H-.468L2.062-7.524H7.418Z" fill="#ffffff"/>
<path transform="matrix(1,0,0,-1,0,54)" d="M142.62 39.916H137.60399V25.037H142.62Z" fill="#ffffff"/>
<path transform="matrix(1,0,0,-1,150.0586,17.952599)" d="M0 0H1.828C3.21 0 3.869-.659 3.869-1.743 3.869-2.827 3.21-3.486 1.828-3.486H0ZM0-7.354H2.147C6.292-7.354 8.928-5.186 8.928-1.743 8.928 1.701 6.292 3.869 2.147 3.869H-5.016V-11.01H0Z" fill="#ffffff"/>
<path transform="matrix(1,0,0,-1,172.9922,25.1797)" d="M0 0H-7.439V1.956H-1.147V5.569H-7.439V7.312H-.276V11.096H-12.37V-3.783H0Z" fill="#ffffff"/>
<path transform="matrix(1,0,0,-1,180.5156,25.4766)" d="M0 0C-1.637 0-3.507 .531-4.91 1.36L-6.525-2.296C-5.037-3.21-2.529-3.826-.043-3.826 4.57-3.826 6.887-1.531 6.887 1.189 6.887 6.674-1.339 5.186-1.339 6.971-1.339 7.481-.871 7.907 .595 7.907 1.892 7.907 3.273 7.545 4.74 6.801L6.249 10.436C4.697 11.308 2.636 11.732 .638 11.732-3.975 11.732-6.292 9.479-6.292 6.716-6.292 1.169 1.935 2.678 1.935 .808 1.935 .297 1.424 0 0 0" fill="#ffffff"/>
<path transform="matrix(1,0,0,-1,48.7236,31.9697)" d="M0 0-3.46-5.834-6.974 0H-8.771V-9.389H-6.733V-3.876L-3.983-8.396H-3.004L-.241-3.756-.228-9.389H1.811L1.784 0Z" fill="#ffffff"/>
<path transform="matrix(1,0,0,-1,59.0371,37.1465)" d="M0 0C0-1.784-.764-2.521-2.092-2.521-3.407-2.521-4.185-1.784-4.185 0V5.177H-6.357V-.081C-6.357-2.844-4.775-4.373-2.105-4.373 .563-4.373 2.146-2.844 2.146-.081V5.177H0Z" fill="#ffffff"/>
<path transform="matrix(1,0,0,-1,65.502,31.9697)" d="M0 0H-2.173V-9.389H4.708V-7.618H0Z" fill="#ffffff"/>
<path transform="matrix(1,0,0,-1,69.4985,33.7402)" d="M0 0H3.004V-7.618H5.177V0H8.182V1.771H0Z" fill="#ffffff"/>
<path transform="matrix(1,0,0,-1,0,54)" d="M78.847 12.642H81.02V22.031H78.847Z" fill="#ffffff"/>
<path transform="matrix(1,0,0,-1,92.0171,31.9697)" d="M0 0-3.46-5.834-6.974 0H-8.771V-9.389H-6.733V-3.876L-3.983-8.396H-3.004L-.241-3.756-.228-9.389H1.811L1.784 0Z" fill="#ffffff"/>
<path transform="matrix(1,0,0,-1,98.2129,37.442399)" d="M0 0H4.359V1.69H0V3.729H4.936V5.473H-2.159V-3.916H5.11V-2.173H0Z" fill="#ffffff"/>
<path transform="matrix(1,0,0,-1,109.2109,39.5742)" d="M0 0H-1.985V5.82H0C1.864 5.82 3.085 4.707 3.085 2.91 3.085 1.113 1.864 0 0 0M.106 7.604H-4.158V-1.784H.106C3.179-1.784 5.284 .066 5.284 2.91 5.284 5.754 3.179 7.604 .106 7.604" fill="#ffffff"/>
<path transform="matrix(1,0,0,-1,0,54)" d="M116.132 12.642H118.305V22.031H116.132Z" fill="#ffffff"/>
<path transform="matrix(1,0,0,-1,123.0518,37.6973)" d="M0 0 1.489 3.595 2.978 0ZM.43 5.728-3.756-3.661H-1.529L-.697-1.649H3.661L4.493-3.661H6.773L2.575 5.728Z" fill="#ffffff"/>
<path transform="matrix(1,0,0,-1,136.209,34.625)" d="M0 0C0 .59 .496 1.072 1.784 1.072 2.615 1.072 3.514 .831 4.386 .335L5.057 1.984C4.185 2.534 2.978 2.816 1.797 2.816-.872 2.816-2.159 1.488-2.159-.107-2.159-3.595 3.3-2.388 3.3-4.145 3.3-4.722 2.776-5.15 1.489-5.15 .362-5.15-.818-4.748-1.609-4.172L-2.347-5.808C-1.516-6.452-.014-6.895 1.476-6.895 4.158-6.895 5.459-5.553 5.459-3.983 5.459-.537 0-1.73 0 0" fill="#ffffff"/>
<path transform="matrix(1,0,0,-1,141.9619,33.7402)" d="M0 0H3.004V-7.618H5.177V0H8.182V1.771H0Z" fill="#ffffff"/>
<path transform="matrix(1,0,0,-1,157.4268,37.1465)" d="M0 0C0-1.784-.765-2.521-2.093-2.521-3.407-2.521-4.185-1.784-4.185 0V5.177H-6.357V-.081C-6.357-2.844-4.775-4.373-2.106-4.373 .562-4.373 2.146-2.844 2.146-.081V5.177H0Z" fill="#ffffff"/>
<path transform="matrix(1,0,0,-1,165.876,39.5742)" d="M0 0H-1.985V5.82H0C1.864 5.82 3.085 4.707 3.085 2.91 3.085 1.113 1.864 0 0 0M.106 7.604H-4.158V-1.784H.106C3.179-1.784 5.284 .066 5.284 2.91 5.284 5.754 3.179 7.604 .106 7.604" fill="#ffffff"/>
<path transform="matrix(1,0,0,-1,0,54)" d="M172.796 12.642H174.96901V22.031H172.796Z" fill="#ffffff"/>
<path transform="matrix(1,0,0,-1,181.7422,39.668)" d="M0 0C-1.677 0-2.938 1.22-2.938 3.004-2.938 4.788-1.677 6.009 0 6.009 1.677 6.009 2.938 4.788 2.938 3.004 2.938 1.22 1.677 0 0 0M0 7.859C-2.964 7.859-5.137 5.794-5.137 3.004-5.137 .214-2.964-1.852 0-1.852 2.95-1.852 5.137 .201 5.137 3.004 5.137 5.808 2.95 7.859 0 7.859" fill="#ffffff"/>
</g>
</g>
</svg>
