<svg xmlns="http://www.w3.org/2000/svg" xmlns:xlink="http://www.w3.org/1999/xlink" xmlns:inkscape="http://www.inkscape.org/namespaces/inkscape" version="1.1" width="255.419" height="45.7258" viewBox="0 0 255.419 45.7258">
<defs>
<clipPath id="clip_1">
<path transform="matrix(1,0,0,-1,0,45.7258)" d="M0 45.726H255.419V0H0Z"/>
</clipPath>
</defs>
<g inkscape:groupmode="layer" inkscape:label="Layer 2">
<g clip-path="url(#clip_1)">
<path transform="matrix(1,0,0,-1,22.6142,14.3759)" d="M0 0C-.018 .004-.049 .012-.067 .014-1.282 .102-3.65 .078-4.916 .076L-11.027 .068-11.086-.008C-11.11-.015-11.254 .084-11.196 .187L-6.39 8.782 7.024 8.796 8.211 8.576C12.451 7.689 15.825 4.372 16.623 .07L.174 .067C.081 .067 .003 .02 0 0" fill="#ff0000"/>
<path transform="matrix(1,0,0,-1,26.8898,16.7589)" d="M0 0-11.163-.008C-11.249 .202-11.963 .39-12.066 .607-11.79 .795-11.453 .862-11.087 .939L-7.605 1.675-5.539 2.146C-5.296 2.202-5.037 2.319-4.735 2.301-4.585 2.292-4.391 2.322-4.343 2.397-4.325 2.395-4.293 2.387-4.276 2.383Z" fill="#6a0000"/>
<path transform="matrix(1,0,0,-1,22.5471,14.362299)" d="M0 0C-.049-.074-.242-.104-.392-.095-.694-.078-.953-.195-1.196-.25L-3.263-.721-6.744-1.457C-7.11-1.535-7.447-1.601-7.724-1.789-8.154-1.632-8.576-1.388-8.944-1.113-8.641-1.143-8.013-.894-7.576-.818L-5.211-.405C-4.78-.329-4.355-.212-3.924-.103-3.238-.09-2.601-.134-1.916-.034L-10.711-.019-10.797-.1-11.019-.021-10.96 .054-4.849 .063C-3.583 .064-1.215 .088 0 0" fill="#610000"/>
<path transform="matrix(1,0,0,-1,13.6028,15.475199)" d="M0 0C-.64 .28-1.258 .641-1.852 1.012L-1.766 1.094 7.028 1.079C6.343 .979 5.706 1.023 5.02 1.01 4.589 .901 4.164 .784 3.733 .708L1.369 .295C.931 .219 .304-.03 0 0" fill="#590000"/>
<path transform="matrix(1,0,0,-1,35.0713,27.4464)" d="M0 0-.289 .079-.586 .235-1.049 .454-1.202 .588C-1.12 .593-.914 .627-.836 .676L-.08 1.154-.061 2.14 .015 2.221Z" fill="#9c0202"/>
<path transform="matrix(1,0,0,-1,15.727,16.766699)" d="M0 0 11.163 .008 23.692-.034C23.608-3.347 21.927-6.301 19.356-8.314 18.685-8.839 17.759-9.276 16.974-9.607 15.924-10.049 14.71-10.335 13.546-10.349L9.515-10.398-11.404-10.374C-9.73-6.892-7.604-3.552-5.779-.049-5.059-.02-4.427-.007-3.749-.006Z" fill="#ff0000"/>
<path transform="matrix(1,0,0,-1,34.5462,31.6617)" d="M0 0 .545-.322 .541-8.484-14.828-1.947C-14.646-1.787-14.364-1.736-14.08-1.74-13.202-1.753-12.358-1.779-11.498-1.721L-10.782-1.672-9.722-1.612C-9.087-1.575-8.484-1.576-7.859-1.49L-6.425-1.29C-5.794-1.203-5.17-1.09-4.563-.924L-3.721-.693C-3.136-.533-2.355-.264-1.819 .006L-1.226 .305-1.141 .473Z" fill="#ff0000"/>
<path transform="matrix(1,0,0,-1,32.9501,30.8899)" d="M0 0 .455-.299 .37-.467-.223-.766C-.759-1.036-1.539-1.304-2.125-1.465L-2.967-1.696C-3.574-1.862-4.197-1.975-4.829-2.062L-6.263-2.261C-6.888-2.348-7.491-2.347-8.126-2.383L-9.186-2.444-9.902-2.492C-10.762-2.551-11.606-2.525-12.484-2.512-12.768-2.508-13.049-2.559-13.232-2.718L-15.395-1.817C-15.369-1.693-15.117-1.856-15.018-1.855L-13.88-1.851-12.569-1.846-9.254-1.791C-8.292-1.776-7.387-1.664-6.435-1.55L-5.192-1.401-4.259-1.262C-3.945-1.215-3.657-1.118-3.348-1.027-3.077-.947-2.7-.944-2.444-.85L-1.582-.534C-1.16-.38-.611-.168-.313 .077Z" fill="#f60000"/>
<path transform="matrix(1,0,0,-1,25.2419,27.1646)" d="M0 0 .006-.07-.928-.176-1.614-.392C-2.081-.539-2.536-.67-3.026-.716-3.474-.758-3.878-.864-4.329-.944-4.636-.999-5.018-.99-5.337-1.019L-7.718-1.235-9.318-1.315-11.325-1.394-13.158-1.47-14.291-1.53-15.033-1.557C-15.591-1.578-16.147-1.518-16.633-1.658-16.95-1.554-17.252-1.395-17.563-1.276L-15.704-1.214-14.642-1.158-13.071-1.059-11.323-1.019-9.744-.962-8.582-.849-7.663-.788C-6.718-.725-4.695-.521-3.843-.302-3.639-.249-3.368-.166-3.165-.157L-1.479-.083C-2.441-.076-3.429-.02-4.391-.054L-20.373-.053C-20.43-.053-20.578-.121-20.594-.138-20.7-.093-20.82-.032-20.919 .023Z" fill="#730000"/>
<path transform="matrix(1,0,0,-1,20.851,27.218199)" d="M0 0-3.289-.116-4.336-.262C-4.76-.322-5.155-.347-5.589-.367L-6.917-.43-8.54-.498C-9.085-.521-9.558-.619-10.099-.652L-11.095-.715C-12.101-.778-12.234-.706-13.085-.861-13.315-.902-13.615-.781-13.772-.993-13.829-.971-13.943-.938-14.002-.917-13.999-.7-14.297-.742-14.461-.688L-15.841-.225C-15.954-.187-16.092-.132-16.203-.085-16.187-.067-16.04 0-15.982 0Z" fill="#5e0000"/>
<path transform="matrix(1,0,0,-1,32.0914,30.4963)" d="M0 0C.116-.074 .255-.131 .392-.167L.545-.317C.247-.561-.301-.773-.724-.928L-1.586-1.244C-1.842-1.337-2.218-1.341-2.489-1.421-2.798-1.512-3.086-1.609-3.401-1.656L-4.333-1.795-5.576-1.943C-6.528-2.057-7.433-2.169-8.396-2.185L-11.711-2.24-13.021-2.244-14.16-2.249C-14.258-2.249-14.51-2.087-14.537-2.211L-15.608-1.743C-15.529-1.678-15.297-1.776-15.172-1.777-14.631-1.78-14.096-1.732-13.561-1.792-12.605-1.898-12.87-1.773-11.922-1.814-10.324-1.885-10.822-1.791-9.421-1.735-8.93-1.716-8.45-1.682-7.953-1.696-6.979-1.724-6.075-1.601-5.111-1.487L-4.568-1.423C-3.848-1.338-1.914-.889-1.264-.653L-.26-.288C-.214-.272-.074-.227-.084-.192L-.13-.016Z" fill="#ee0000"/>
<path transform="matrix(1,0,0,-1,30.7425,29.8857)" d="M0 0C.09-.041 .211-.107 .291-.156-1.273-.85-3.576-1.12-5.327-1.273L-6.908-1.41-7.977-1.431-8.997-1.443-14.174-1.436-15.554-1.368C-15.9-1.351-16.271-1.23-16.543-1.376-16.659-1.326-16.805-1.262-16.923-1.229L-17.237-.994-15.601-1.044-14.168-1.137-8.215-1.154C-7.78-1.043-7.358-1.122-6.944-1.099L-5.222-1.002C-4.52-.962-3.843-.834-3.15-.726L-2.287-.591C-2.011-.548-1.742-.484-1.469-.408Z" fill="#c10000"/>
<path transform="matrix(1,0,0,-1,31.0331,30.042099)" d="M0 0 .158-.006 .311-.157C-.567-.525-1.46-.893-2.45-.992-3.4-1.087-3.439-1.209-4.365-1.284L-5.286-1.358-6.535-1.457C-6.763-1.475-7.032-1.504-7.272-1.509L-10.233-1.573-11.852-1.599-13.075-1.557-15.235-1.536C-15.566-1.533-15.848-1.494-16.186-1.394L-16.304-1.45-16.834-1.22C-16.561-1.074-16.191-1.195-15.844-1.212L-14.465-1.28-9.288-1.287-8.268-1.275-7.199-1.254-5.618-1.116C-3.866-.964-1.563-.693 0 0" fill="#ce0000"/>
<path transform="matrix(1,0,0,-1,31.9619,30.5119)" d="M0 0 .046-.176C.055-.212-.084-.256-.13-.273L-1.134-.637C-1.784-.873-3.719-1.322-4.439-1.407L-4.981-1.471C-5.945-1.585-6.849-1.708-7.823-1.68-8.321-1.666-8.801-1.7-9.291-1.72-10.693-1.776-10.195-1.869-11.793-1.799-12.741-1.757-12.476-1.883-13.431-1.776-13.966-1.717-14.502-1.765-15.043-1.761-15.168-1.76-15.4-1.662-15.478-1.727L-15.764-1.6C-15.687-1.559-15.521-1.518-15.406-1.521L-12.874-1.571-12.074-1.572-10.82-1.552-9.043-1.509-7.185-1.416-5.901-1.328C-4.103-1.204-2.1-.769-.389-.166-.314-.14-.182 .019-.171 .074Z" fill="#e40000"/>
<path transform="matrix(1,0,0,-1,31.3441,30.198899)" d="M0 0C.016-.016 .042-.046 .059-.066-.131-.365-.565-.414-.935-.526-2.176-.902-4.152-1.271-5.44-1.362L-6.292-1.423-7.815-1.518C-8.045-1.533-8.279-1.536-8.436-1.605L-9.114-1.632-9.883-1.653-14.393-1.657C-14.845-1.657-15.299-1.514-15.678-1.684L-16.615-1.293-16.497-1.237C-16.159-1.337-15.877-1.376-15.546-1.379L-13.386-1.4-12.163-1.442-10.544-1.416-7.583-1.352C-7.343-1.347-7.074-1.318-6.846-1.3L-5.597-1.201-4.676-1.127C-3.751-1.053-3.711-.93-2.761-.835-1.771-.736-.878-.369 0 0" fill="#d80000"/>
<path transform="matrix(1,0,0,-1,31.7906,30.4375)" d="M0 0C-.011-.055-.142-.214-.217-.241-1.929-.843-3.932-1.278-5.73-1.402L-7.014-1.49-8.872-1.583-10.649-1.626-11.903-1.647-12.702-1.646-15.235-1.595C-15.35-1.593-15.515-1.634-15.592-1.675L-16.124-1.445C-15.746-1.275-15.292-1.418-14.84-1.418L-10.329-1.415-9.561-1.393-8.882-1.367C-8.192-1.34-7.471-1.41-6.762-1.337L-4.729-1.126C-3.9-1.039-3.1-.85-2.276-.692-2.072-.653-.122-.109-.153 .086-.114 .065-.04 .018 0 0" fill="#e10000"/>
<path transform="matrix(1,0,0,-1,35.0828,25.0811)" d="M0 0 .004-.145-.072-.225-.091-1.211-.848-1.689C-.926-1.738-1.131-1.772-1.214-1.777L-1.763-1.609C-1.941-1.466-2.157-1.358-2.382-1.292-1.597-.962-.67-.525 0 0" fill="#8f0101"/>
<path transform="matrix(1,0,0,-1,7.6792,28.4408)" d="M0 0-.6 .229C-.443 .441-.144 .32 .086 .362 .938 .516 1.071 .445 2.077 .508L3.073 .57C3.613 .604 4.087 .701 4.631 .724L6.255 .793 7.583 .855C8.017 .876 8.411 .901 8.835 .96L9.882 1.107 13.172 1.223C14.134 1.256 15.122 1.2 16.083 1.193L14.397 1.119C14.195 1.111 13.924 1.027 13.719 .974 12.868 .755 10.844 .551 9.9 .488L8.981 .427 7.819 .314 6.24 .257 4.491 .217 2.92 .118 1.859 .062Z" fill="#690000"/>
<path transform="matrix(1,0,0,-1,25.4522,27.3704)" d="M0 0C-.132-.233-.496-.363-.81-.424L-2.764-.798-4.464-1.033C-4.762-1.074-5.108-1.044-5.405-1.105L-6.322-1.292-7.812-1.359-9.5-1.394-11.003-1.421-11.714-1.423C-11.835-1.424-12.119-1.516-12.245-1.514-12.727-1.471-13.173-1.464-13.636-1.505L-14.252-1.559C-14.598-1.59-15.006-1.493-15.353-1.558-15.882-1.658-16.35-1.595-16.843-1.452-16.357-1.312-15.801-1.372-15.243-1.352L-14.501-1.324-13.368-1.264-11.535-1.188-9.529-1.109-7.928-1.029-5.548-.813C-5.228-.784-4.847-.793-4.539-.738-4.088-.658-3.684-.552-3.236-.51-2.746-.464-2.292-.333-1.825-.186L-1.138 .029-.204 .136Z" fill="#7b0000"/>
<path transform="matrix(1,0,0,-1,6.8495,28.1349)" d="M0 0C-.161 .059-.331 .14-.459 .229-.296 .174 .002 .216 0 0" fill="#690000"/>
<path transform="matrix(1,0,0,-1,30.269,29.6667)" d="M0 0 .15 .002C.238-.067 .362-.117 .478-.138L.474-.219-.996-.627C-1.269-.703-1.537-.767-1.813-.81L-2.677-.945C-3.369-1.053-4.046-1.181-4.749-1.221L-6.47-1.318C-6.884-1.341-7.306-1.262-7.741-1.373L-13.695-1.356-15.127-1.263-16.763-1.213C-17.047-1.148-17.326-1.024-17.605-.913-17.332-.872-17.005-.866-16.689-.891L-15.69-.969-14.738-1.038-12.76-1.109C-11.549-1.152-11.623-1.108-10.545-1.094L-9.375-1.079-6.895-1.042-5.739-.976-4.361-.897C-4.015-.877-3.645-.821-3.292-.761L-1.076-.386C-.688-.321-.334-.149 0 0" fill="#b60000"/>
<path transform="matrix(1,0,0,-1,31.6373,30.351899)" d="M0 0C.031-.194-1.919-.738-2.122-.777-2.947-.936-3.747-1.125-4.576-1.211L-6.609-1.422C-7.318-1.496-8.039-1.425-8.729-1.452-8.572-1.383-8.338-1.38-8.108-1.365L-6.585-1.27-5.733-1.209C-4.445-1.118-2.469-.749-1.228-.373-.858-.261-.425-.212-.235 .087L-.18 .093Z" fill="#d90000"/>
<path transform="matrix(1,0,0,-1,27.2272,28.2216)" d="M0 0 .028-.179C.06-.379-.613-.464-.873-.474L-1.652-.507C-1.81-.514-2.03-.704-2.201-.714L-3.737-.802C-4.182-.827-4.56-.902-4.996-.934-5.645-.98-6.257-1.078-6.912-1.078-8.079-1.079-7.394-1.213-8.52-1.221L-10.611-1.236-11.838-1.255-14.115-1.24-15.714-1.205-16.386-1.206C-16.695-1.206-17.022-1.153-17.317-1.131-17.578-1.079-17.87-.991-18.082-.83-16.816-1.031-17.311-.832-16.045-.949-15.397-.818-14.761-.895-14.115-.867L-13.103-.823C-12.796-.81-12.477-.851-12.177-.891-11.18-.799-10.671-.873-9.588-.813-9.256-.795-8.933-.759-8.594-.767-8.117-.778-7.674-.673-7.213-.635-6.728-.596-4.571-.431-4.271-.343-3.669-.166-3.171-.076-2.542-.028-2.08 .008-1.563 .246-1.13 .342L-1.14 .509C-1.141 .529-1.127 .529-1.094 .543-.714 .388-.36 .192 0 0" fill="#870000"/>
<path transform="matrix(1,0,0,-1,28.3475,28.748499)" d="M0 0C-.034-.002-.074 .005-.065-.011-.053-.033 .038-.192 .05-.212L-.727-.372C-1.071-.443-1.398-.525-1.749-.565L-2.445-.644C-3.064-.715-3.657-.781-4.284-.8L-5.816-.847-7.477-.947-9.694-1.011C-10.553-1.035-10.889-1.073-11.769-1.017-11.979-1.004-13.082-.973-13.096-1.073L-13.388-1.053C-13.451-.946-13.596-.934-13.748-.939L-14.465-.958-15.155-.994-15.367-.992C-15.78-.822-16.261-.952-16.751-.912L-17.673-.838H-17.902C-18.089-.789-18.29-.699-18.438-.604-18.143-.626-17.816-.679-17.506-.679L-16.834-.678-15.235-.713-12.959-.728-11.731-.709-9.64-.694C-8.514-.686-9.2-.552-8.033-.551-7.377-.551-6.766-.453-6.116-.407-5.68-.376-5.303-.3-4.857-.275L-3.321-.187C-3.151-.177-2.93 .013-2.772 .02L-1.993 .052C-1.733 .063-1.06 .148-1.092 .348L-1.12 .527C-.816 .365-.263 .208 0 0" fill="#8d0000"/>
<path transform="matrix(1,0,0,-1,26.1335,27.6784)" d="M0 0C-.034-.014-.048-.014-.047-.034L-.036-.201C-.47-.297-.987-.536-1.448-.571-2.078-.62-2.575-.709-3.177-.886-3.478-.974-5.634-1.139-6.119-1.178-6.58-1.216-7.024-1.321-7.501-1.31-7.839-1.302-8.162-1.338-8.494-1.356-9.578-1.416-10.086-1.342-11.084-1.434-11.383-1.394-11.702-1.353-12.009-1.366L-13.022-1.41C-13.667-1.438-14.304-1.361-14.951-1.492-16.218-1.376-15.722-1.574-16.989-1.373-17.176-1.344-17.381-1.255-17.524-1.144-17.032-1.287-16.563-1.35-16.034-1.25-15.688-1.185-15.279-1.282-14.933-1.251L-14.318-1.197C-13.854-1.156-13.408-1.163-12.926-1.206-12.801-1.208-12.517-1.116-12.396-1.115L-11.684-1.113-10.181-1.086-8.494-1.051-7.003-.984-6.086-.797C-5.789-.736-5.443-.766-5.146-.725L-3.446-.49-1.491-.116C-1.177-.055-.813 .075-.681 .308-.437 .284-.217 .088 0 0" fill="#7f0000"/>
<path transform="matrix(1,0,0,-1,28.6701,28.838999)" d="M0 0 .444-.297C.223-.62-.276-.643-.684-.702L-2.465-.96-4.186-1.165C-4.977-1.259-5.781-1.184-6.593-1.213L-7.821-1.257C-8.15-1.269-8.489-1.242-8.811-1.298-9.314-1.387-9.76-1.356-10.269-1.314-10.797-1.27-11.33-1.307-11.869-1.28L-12.867-1.229-15.849-1.154C-16.417-1.14-16.948-1.149-17.459-1.053-17.558-1.035-17.758-1.027-17.842-.977L-18.225-.748H-17.995C-17.957-1.048-15.871-.9-15.69-.902L-15.477-.904-15.399-.968-14.109-.996C-13.952-1-13.82-1.005-13.711-.963L-13.418-.983C-12.917-1.108-11.881-1.154-11.302-1.116-10.351-1.053-10.463-1.137-9.524-1.105L-8.168-1.06-5.24-.955-4.18-.913-2.685-.793C-2.299-.762-1.93-.704-1.54-.627L-.831-.486-.139-.335C-.084-.323 .037-.173-.001-.135L-.161 .022Z" fill="#940000"/>
<path transform="matrix(1,0,0,-1,29.8872,29.5023)" d="M0 0 .132-.001 .382-.164C.047-.313-.307-.485-.694-.551L-2.91-.925C-3.263-.985-3.634-1.041-3.979-1.061L-5.357-1.141-6.513-1.206-8.993-1.244-10.163-1.259C-11.241-1.272-11.167-1.316-12.379-1.273L-14.356-1.202-15.308-1.133-16.307-1.055C-16.623-1.03-16.951-1.036-17.223-1.077L-17.988-.772V-.695C-17.814-.726-17.584-.757-17.381-.764L-15.313-.838-14.014-.9-12.794-.948-12.149-.971C-10.524-1.031-9.483-.956-7.868-.907L-5.03-.821C-4.169-.795-.838-.34 0 0" fill="#ab0000"/>
<path transform="matrix(1,0,0,-1,29.4277,29.1995)" d="M0 0 .459-.303C-.378-.643-3.709-1.098-4.571-1.124L-7.408-1.21C-9.023-1.259-10.064-1.334-11.69-1.274L-12.335-1.251-13.554-1.203-14.854-1.14-16.922-1.067C-17.124-1.06-17.355-1.029-17.529-.998-17.697-.969-17.889-.902-18.064-.845L-18.217-.693C-17.706-.788-17.175-.78-16.607-.794L-13.625-.869-12.627-.92C-12.088-.947-11.555-.909-11.027-.953-10.518-.996-10.072-1.026-9.569-.938-9.247-.881-8.908-.908-8.579-.896L-7.351-.853C-6.539-.824-5.734-.899-4.944-.805L-3.223-.599-1.442-.342C-1.034-.283-.535-.26-.313 .064Z" fill="#9f0000"/>
<path transform="matrix(1,0,0,-1,28.5092,28.8165)" d="M0 0 .16-.157C.198-.195 .077-.346 .022-.358L-.671-.509-1.379-.649C-1.77-.727-2.138-.784-2.524-.815L-4.02-.936-5.079-.977-8.008-1.082-9.363-1.127C-10.302-1.159-10.19-1.075-11.141-1.138-11.72-1.176-12.756-1.131-13.258-1.005-13.243-.905-12.14-.936-11.93-.949-11.051-1.005-10.715-.968-9.856-.943L-7.639-.879-5.978-.779-4.446-.732C-3.819-.713-3.226-.647-2.607-.576L-1.91-.497C-1.56-.457-1.232-.375-.888-.304L-.112-.144C-.124-.124-.215 .035-.227 .057-.236 .073-.196 .066-.162 .068Z" fill="#940000"/>
<path transform="matrix(1,0,0,-1,12.9804,29.740899)" d="M0 0C-.181 .002-2.268-.146-2.305 .154L-1.384 .08C-.893 .041-.413 .171 0 0" fill="#940000"/>
<path transform="matrix(1,0,0,-1,14.9595,29.801899)" d="M0 0C-.11-.042-.242-.037-.398-.033L-1.688-.005-1.767 .059-1.077 .095-.36 .115C-.208 .119-.063 .108 0 0" fill="#940000"/>
<path transform="matrix(1,0,0,-1,52.2078,16.7334)" d="M0 0H2.497C4.384 0 5.284-.9 5.284-2.381 5.284-3.861 4.384-4.762 2.497-4.762H0ZM0-9.93H1.858L5.313-15.041H12.631L8.362-8.769C10.801-7.52 12.195-5.313 12.195-2.381 12.195 2.323 8.595 5.285 2.932 5.285H-6.853V-15.041H0Z" fill="#ffffff"/>
<path transform="matrix(1,0,0,-1,83.8837,26.6059)" d="M0 0H-10.162V2.671H-1.567V7.608H-10.162V9.989H-.377V15.157H-16.899V-5.168H0Z" fill="#ffffff"/>
<path transform="matrix(1,0,0,-1,93.3774,26.431099)" d="M0 0V9.64H2.874C5.749 9.64 7.723 7.927 7.723 4.82 7.723 1.713 5.749 0 2.874 0ZM14.634 4.82C14.634 11.12 9.959 14.983 3.165 14.983H-6.853V-5.343H3.165C9.959-5.343 14.634-1.481 14.634 4.82" fill="#ffffff"/>
<path transform="matrix(1,0,0,-1,126.8516,27.0114)" d="M0 0C-2.235 0-4.791 .726-6.707 1.858L-8.913-3.136C-6.881-4.385-3.454-5.227-.057-5.227 6.243-5.227 9.409-2.092 9.409 1.625 9.409 9.117-1.829 7.084-1.829 9.523-1.829 10.22-1.19 10.801 .814 10.801 2.585 10.801 4.472 10.307 6.475 9.291L8.538 14.256C6.418 15.447 3.601 16.027 .871 16.027-5.429 16.027-8.594 12.949-8.594 9.175-8.594 1.597 2.643 3.658 2.643 1.103 2.643 .406 1.946 0 0 0" fill="#ffffff"/>
<path transform="matrix(1,0,0,-1,155.2198,11.448601)" d="M0 0H-18.758V-5.313H-12.805V-20.325H-5.952V-5.313H0Z" fill="#ffffff"/>
<path transform="matrix(1,0,0,-1,166.3377,21.4952)" d="M0 0H-2.497V4.762H0C1.888 4.762 2.788 3.862 2.788 2.381 2.788 .9 1.888 0 0 0M5.866-4.007C8.304-2.758 9.698-.552 9.698 2.381 9.698 7.085 6.098 10.047 .436 10.047H-9.349V-10.279H-2.497V-5.168H-.639L2.816-10.279H10.133Z" fill="#ffffff"/>
<path transform="matrix(1,0,0,-1,0,45.7258)" d="M185.47 34.277H178.618V13.952H185.47Z" fill="#ffffff"/>
<path transform="matrix(1,0,0,-1,195.6317,16.7334)" d="M0 0H2.497C4.385 0 5.285-.9 5.285-2.381 5.285-3.861 4.385-4.762 2.497-4.762H0ZM0-10.046H2.934C8.595-10.046 12.196-7.084 12.196-2.381 12.196 2.323 8.595 5.285 2.934 5.285H-6.852V-15.041H0Z" fill="#ffffff"/>
<path transform="matrix(1,0,0,-1,226.9602,26.6059)" d="M0 0H-10.163V2.671H-1.567V7.608H-10.163V9.989H-.378V15.157H-16.898V-5.168H0Z" fill="#ffffff"/>
<path transform="matrix(1,0,0,-1,237.2376,27.0114)" d="M0 0C-2.236 0-4.791 .726-6.708 1.858L-8.914-3.136C-6.881-4.385-3.455-5.227-.059-5.227 6.243-5.227 9.408-2.092 9.408 1.625 9.408 9.117-1.829 7.084-1.829 9.523-1.829 10.22-1.19 10.801 .812 10.801 2.584 10.801 4.472 10.307 6.475 9.291L8.536 14.256C6.417 15.447 3.601 16.027 .871 16.027-5.43 16.027-8.595 12.949-8.595 9.175-8.595 1.597 2.643 3.658 2.643 1.103 2.643 .406 1.945 0 0 0" fill="#ffffff"/>
</g>
</g>
</svg>
