<?xml version="1.0" encoding="UTF-8"?><svg id="Layer_2" xmlns="http://www.w3.org/2000/svg" xmlns:xlink="http://www.w3.org/1999/xlink" viewBox="0 0 32 32"><defs><style>.cls-1{clip-path:url(#clippath-4);}.cls-2{fill:url(#linear-gradient-2);}.cls-3{fill:none;}.cls-4{fill:red;}.cls-5{opacity:.9;}.cls-6{clip-path:url(#clippath-1);}.cls-7{clip-path:url(#clippath-5);}.cls-8{clip-path:url(#clippath-3);}.cls-9{clip-path:url(#clippath-2);}.cls-10{fill:url(#linear-gradient);}.cls-11{clip-path:url(#clippath);}</style><clipPath id="clippath"><rect class="cls-3" x="-6.39" y="-7.51" width="46.73" height="46.73"/></clipPath><clipPath id="clippath-1"><rect class="cls-3" x="-6.39" y="-7.51" width="46.73" height="46.73"/></clipPath><clipPath id="clippath-2"><rect class="cls-3" x="-6.39" y="-7.51" width="46.73" height="46.73"/></clipPath><clipPath id="clippath-3"><rect class="cls-3" x="1.37" y="2.43" width="26.12" height="28.03"/></clipPath><clipPath id="clippath-4"><polygon class="cls-3" points="11.44 2.43 6.94 10.36 27.49 25.78 27.49 22.28 11.44 2.43"/></clipPath><linearGradient id="linear-gradient" x1="-.63" y1="30.82" x2="-.59" y2="30.82" gradientTransform="translate(308.11 14648.15) scale(474.89 -474.89)" gradientUnits="userSpaceOnUse"><stop offset="0" stop-color="#6d0000"/><stop offset="1" stop-color="red"/></linearGradient><clipPath id="clippath-5"><polygon class="cls-3" points="1.37 20.21 27.49 30.46 27.49 26.95 6.07 12.17 1.37 20.21"/></clipPath><linearGradient id="linear-gradient-2" x1="-.29" y1="31.33" x2="-.25" y2="31.33" gradientTransform="translate(179.23 18938.98) scale(603.77 -603.77)" gradientUnits="userSpaceOnUse"><stop offset="0" stop-color="#730000"/><stop offset="1" stop-color="red"/></linearGradient></defs><g class="cls-11"><g class="cls-6"><g class="cls-9"><g class="cls-5"><g class="cls-8"><g class="cls-1"><rect class="cls-10" x="6.94" y="2.43" width="20.55" height="23.36"/></g><g class="cls-7"><rect class="cls-2" x="1.37" y="12.17" width="26.12" height="18.28"/></g></g></g><path class="cls-4" d="M30.51,10.36c-.48-4.46-4.26-7.94-8.86-7.94-.25,0-.49.01-.74.03v-.03h-9.48l-4.49,7.94h23.57Z"/><path class="cls-4" d="M5.94,12.14L1.37,20.21h19.52c.25.02.51.03.77.03,4.65,0,8.47-3.56,8.87-8.11H5.94Z"/></g></g></g></svg>